<?xml version="1.0" standalone="no"?>
<!DOCTYPE svg PUBLIC "-//W3C//DTD SVG 20010904//EN"
 "http://www.w3.org/TR/2001/REC-SVG-20010904/DTD/svg10.dtd">
<svg version="1.0" xmlns="http://www.w3.org/2000/svg"
 width="217.000000pt" height="190.000000pt" viewBox="0 0 217.000000 190.000000"
 preserveAspectRatio="xMidYMid meet">
<metadata>
Created by potrace 1.15, written by Peter Selinger 2001-2017
</metadata>
<g transform="translate(0.000000,190.000000) scale(0.100000,-0.100000)"
fill="#000000" stroke="none">
<path d="M995 1812 c-116 -40 -195 -149 -195 -267 0 -117 52 -207 154 -265 45
-26 61 -30 131 -30 100 0 152 22 217 92 74 78 95 176 62 288 -22 75 -109 162
-184 184 -68 20 -122 20 -185 -2z m166 -62 c19 -5 55 -29 80 -53 122 -116 74
-325 -85 -372 -95 -28 -151 -13 -223 60 -42 43 -53 62 -62 106 -16 77 6 146
64 204 60 60 138 79 226 55z"/>
<path d="M1670 1701 c-109 -35 -170 -115 -170 -225 0 -193 229 -297 372 -168
150 136 73 375 -128 396 -27 3 -60 2 -74 -3z m144 -92 c131 -90 53 -302 -106
-287 -85 9 -142 72 -142 158 0 127 143 201 248 129z"/>
<path d="M445 1691 c-106 -26 -175 -114 -175 -223 1 -199 240 -303 380 -165
52 52 70 94 70 166 -1 72 -26 127 -79 173 -58 49 -125 66 -196 49z m119 -81
c59 -28 86 -73 86 -141 0 -68 -25 -111 -79 -139 -109 -55 -231 18 -231 138 0
53 20 93 62 125 55 41 103 46 162 17z"/>
<path d="M340 1221 c-36 -4 -74 -11 -85 -16 -41 -17 -85 -57 -111 -101 -24
-41 -27 -59 -32 -165 l-5 -119 239 2 239 3 0 30 0 30 -202 3 -203 2 0 39 c0
67 19 144 43 169 49 53 84 62 244 62 81 0 166 -5 187 -11 35 -10 42 -9 53 7
20 27 16 43 -12 54 -34 13 -273 20 -355 11z"/>
<path d="M1518 1219 c-33 -12 -33 -16 -10 -47 16 -21 20 -22 77 -11 35 6 120
9 202 7 141 -4 143 -5 180 -35 51 -40 65 -74 71 -160 l5 -73 -204 -2 -204 -3
0 -30 0 -30 239 -3 238 -2 -4 119 c-4 111 -6 123 -34 167 -16 27 -49 62 -73
79 l-43 30 -206 2 c-123 1 -218 -2 -234 -8z"/>
<path d="M821 1180 c-69 -32 -115 -75 -150 -140 -32 -60 -33 -67 -39 -206 l-5
-144 483 0 483 0 -6 144 c-5 128 -8 149 -31 195 -31 61 -82 113 -139 143 -40
22 -54 23 -297 25 -235 2 -258 1 -299 -17z m568 -75 c96 -48 131 -119 131
-264 l0 -81 -410 0 -410 0 0 86 c0 48 6 105 12 128 15 50 89 127 138 143 21 6
127 11 263 12 223 1 229 1 276 -24z"/>
<path d="M1352 628 c-16 -16 -15 -43 2 -57 11 -10 12 -19 4 -42 -12 -34 -8
-42 16 -33 35 14 52 126 20 138 -22 8 -28 8 -42 -6z"/>
<path d="M510 460 l0 -170 105 0 105 0 0 30 0 29 -72 3 -73 3 -3 138 -3 137
-29 0 -30 0 0 -170z"/>
<path d="M766 578 c-3 -29 -6 -106 -6 -170 l0 -118 110 0 110 0 0 30 0 30 -75
0 -75 0 0 45 0 44 63 3 c59 3 62 4 62 28 0 24 -3 25 -62 28 l-63 3 0 34 0 35
75 0 75 0 0 30 0 30 -104 0 -103 0 -7 -52z"/>
<path d="M1020 600 c0 -29 1 -30 50 -30 l50 0 0 -140 0 -140 35 0 35 0 0 140
0 140 50 0 c49 0 50 1 50 30 l0 30 -135 0 -135 0 0 -30z"/>
<path d="M1506 605 c-19 -18 -26 -34 -26 -62 0 -55 22 -79 88 -99 65 -20 92
-39 92 -65 0 -41 -81 -49 -122 -13 -16 15 -20 15 -44 -1 l-26 -17 25 -25 c28
-28 98 -41 162 -29 40 8 75 52 75 94 0 50 -30 81 -104 105 -79 25 -102 49 -71
73 23 18 79 13 104 -10 14 -13 19 -12 41 6 l25 20 -30 24 c-25 20 -41 24 -96
24 -56 0 -70 -4 -93 -25z"/>
<path d="M535 135 c-3 -35 -4 -69 0 -75 12 -19 73 -11 89 12 14 19 14 25 2 43
-10 15 -11 26 -4 39 14 25 -8 46 -47 46 l-33 0 -7 -65z m64 46 c21 -13 5 -41
-24 -41 -18 0 -25 5 -25 18 0 31 21 41 49 23z m16 -86 c0 -15 -8 -21 -32 -23
-30 -3 -33 -1 -33 23 0 24 3 26 33 23 24 -2 32 -8 32 -23z"/>
<path d="M681 139 c-1 -72 8 -89 49 -89 41 0 50 17 48 89 l-1 66 -6 -60 c-7
-69 -15 -85 -41 -85 -25 0 -30 10 -39 83 l-8 62 -2 -66z"/>
<path d="M830 125 l0 -75 28 0 c47 0 72 25 72 74 0 51 -22 76 -68 76 l-32 0 0
-75z m70 45 c22 -22 24 -37 10 -74 -7 -20 -16 -26 -40 -26 -30 0 -30 1 -30 53
0 30 3 57 7 60 12 12 33 7 53 -13z"/>
<path d="M970 125 l0 -75 30 0 c41 0 80 39 80 80 0 41 -31 70 -75 70 l-35 0 0
-75z m82 42 c23 -36 -1 -97 -37 -97 -24 0 -25 3 -25 61 l0 61 27 -7 c15 -3 31
-12 35 -18z"/>
<path d="M1110 194 c0 -7 9 -31 20 -55 11 -24 20 -55 21 -69 0 -18 4 -12 13
20 7 25 18 56 25 68 7 13 10 26 7 29 -3 3 -11 -6 -17 -21 -16 -34 -23 -33 -48
7 -11 17 -21 27 -21 21z"/>
<path d="M1311 139 c0 -39 4 -70 11 -77 16 -16 63 -15 76 1 17 20 27 123 13
131 -7 5 -11 -7 -11 -38 0 -53 -14 -96 -32 -96 -28 0 -39 19 -47 81 l-8 64 -2
-66z"/>
<path d="M1460 125 c0 -43 4 -75 10 -75 6 0 10 10 10 23 0 17 8 25 33 32 27 8
33 15 35 44 4 39 -9 51 -55 51 l-33 0 0 -75z m64 49 c9 -8 16 -19 16 -23 0
-13 -24 -31 -42 -31 -14 0 -18 8 -18 35 0 39 17 46 44 19z"/>
</g>
</svg>
