<svg version="1.1" id="Layer_1" xmlns="http://www.w3.org/2000/svg" xmlns:xlink="http://www.w3.org/1999/xlink" x="0px" y="0px"
	 width="100%" viewBox="0 0 217 190" enable-background="new 0 0 217 190" xml:space="preserve">
<path fill="#FDFDFD" opacity="1.000000" stroke="none" 
	d="
M218.000000,71.000000 
	C218.000000,110.166664 217.957214,148.833466 218.083969,187.499725 
	C218.093735,190.483261 217.482300,191.086823 214.499878,191.082306 
	C144.500031,190.976089 74.499962,190.976089 4.500125,191.082306 
	C1.517709,191.086823 0.912004,190.482452 0.917383,187.499847 
	C1.027387,126.500046 1.027387,65.499954 0.917383,4.500149 
	C0.912004,1.517551 1.517709,0.913181 4.500125,0.917706 
	C74.499962,1.023914 144.500031,1.023914 214.499878,0.917706 
	C217.482300,0.913181 218.107925,1.514642 218.086258,4.500626 
	C217.926682,26.499468 218.000000,48.500000 218.000000,71.000000 
z"/>
<path fill="#0C0C0C" opacity="1.000000" stroke="none" 
	d="
M159.091644,95.208824 
	C159.406403,103.120583 159.600906,110.609795 160.035828,118.085037 
	C160.204529,120.984688 159.612640,122.100761 156.323700,122.085342 
	C126.689453,121.946388 97.054115,121.963371 67.419640,122.077629 
	C64.411057,122.089226 63.814705,121.003479 63.948498,118.334396 
	C64.281723,111.686653 64.561897,105.028336 64.570404,98.373894 
	C64.587585,84.944405 78.870949,70.188965 94.421082,70.870399 
	C106.053009,71.380127 117.725166,70.940247 129.379181,70.985374 
	C144.107544,71.042412 155.393478,80.118782 159.091644,95.208824 
z"/>
<path fill="#0A0A0A" opacity="1.000000" stroke="none" 
	d="
M115.760742,66.002747 
	C99.149170,67.002831 88.221687,61.121174 82.972076,48.608643 
	C77.152245,34.736977 82.683754,19.147518 96.161667,11.436399 
	C108.555046,4.345779 124.576500,8.188643 133.742523,20.450451 
	C145.974289,36.813454 136.735382,60.765236 115.760742,66.002747 
z"/>
<path fill="#0B0B0B" opacity="1.000000" stroke="none" 
	d="
M49.940926,101.985153 
	C52.428104,101.987137 54.442070,102.147591 56.421223,101.953354 
	C59.311325,101.669701 59.636662,103.256699 59.700775,105.568222 
	C59.768490,108.009392 58.766907,108.710869 56.454155,108.716629 
	C42.633049,108.751030 28.811983,108.872238 14.991530,109.022163 
	C13.091936,109.042770 11.866046,108.866364 11.952107,106.429245 
	C12.180913,99.949829 11.655790,93.450340 12.844146,87.000549 
	C14.564507,77.663315 23.767733,69.258598 33.258415,68.772598 
	C43.903515,68.227478 54.557205,68.158241 65.209152,68.769966 
	C67.232880,68.886185 69.150604,69.222694 70.978050,70.120148 
	C72.376312,70.806831 73.930794,71.487755 72.899391,73.395462 
	C72.020767,75.020592 71.542656,77.533195 68.764717,76.770844 
	C57.771671,73.753998 46.586105,75.560120 35.490360,75.459534 
	C27.130562,75.383736 20.928307,81.342987 19.853992,89.723305 
	C18.285225,101.960670 18.285215,101.966133 30.468309,101.987625 
	C36.796234,101.998795 43.124203,101.986664 49.940926,101.985153 
z"/>
<path fill="#0A0A0A" opacity="1.000000" stroke="none" 
	d="
M173.117950,107.776031 
	C170.973022,107.759277 169.296478,107.607101 167.648315,107.760246 
	C164.886963,108.016800 164.287506,106.619766 164.264252,104.197174 
	C164.238968,101.564301 165.307205,100.842972 167.851669,100.871086 
	C178.831940,100.992447 189.816086,100.813805 200.794815,100.991554 
	C203.953995,101.042709 205.196533,100.333580 205.035217,96.915375 
	C204.823090,92.420784 205.029877,87.850105 203.043381,83.731224 
	C200.025452,77.473808 194.673859,74.507217 187.845657,74.368622 
	C177.064117,74.149780 166.209915,73.051987 155.574081,75.644478 
	C151.965866,76.523979 151.713852,73.599007 150.716003,71.945854 
	C149.220520,69.468323 152.171570,69.692368 153.281448,69.038345 
	C155.005371,68.022491 157.032303,67.851692 159.058273,67.851707 
	C168.705826,67.851768 178.357391,67.616989 187.999985,67.821404 
	C201.689423,68.111595 210.961960,77.084442 211.844971,90.738251 
	C212.145142,95.379684 211.810867,100.060661 212.067291,104.706963 
	C212.225449,107.572510 210.942429,107.906883 208.539566,107.882103 
	C196.893616,107.762009 185.246078,107.797501 173.117950,107.776031 
z"/>
<path fill="#0B0B0B" opacity="1.000000" stroke="none" 
	d="
M30.870836,55.892113 
	C23.445597,39.966442 30.531750,25.223961 46.997456,21.680250 
	C55.534420,19.842947 64.911324,24.046974 70.050919,32.016010 
	C74.609268,39.083817 73.982101,50.685078 69.310211,57.388905 
	C61.387993,68.756706 42.210709,72.151352 30.870836,55.892113 
z"/>
<path fill="#0A0A0A" opacity="1.000000" stroke="none" 
	d="
M157.682922,26.679316 
	C168.089050,17.647358 181.248276,18.153950 190.002838,27.657101 
	C198.783249,37.188305 198.295441,50.664425 188.839828,59.786201 
	C179.905334,68.405266 166.427246,68.293350 157.491333,59.525890 
	C148.385498,50.591717 148.357910,36.703869 157.682922,26.679316 
z"/>
<path fill="#0D0D0D" opacity="1.000000" stroke="none" 
	d="
M77.257065,147.991287 
	C77.351402,141.998413 77.553589,136.501251 77.472107,131.008316 
	C77.436218,128.588684 78.229507,127.856316 80.613029,127.926231 
	C85.771545,128.077515 90.940392,128.045074 96.100128,127.906143 
	C98.275955,127.847549 98.975594,128.548584 98.953758,130.738052 
	C98.931770,132.943298 98.574135,134.205338 95.971268,134.023315 
	C93.319435,133.837875 90.637093,134.107834 87.981506,133.951218 
	C85.307602,133.793503 83.877609,134.067581 83.857491,137.537308 
	C83.836578,141.142120 85.571327,141.137100 88.073235,141.067383 
	C90.068298,141.011810 92.069580,141.208023 94.066360,141.177780 
	C96.404633,141.142380 96.745132,142.552383 96.742325,144.440094 
	C96.739586,146.284851 95.990891,147.244034 94.094742,147.229584 
	C92.429436,147.216904 90.763840,147.247147 89.098358,147.251282 
	C84.204308,147.263458 82.710831,149.453857 83.981873,154.329422 
	C84.413780,155.986191 85.432213,155.861435 86.576782,155.865646 
	C89.574730,155.876694 92.574448,155.925598 95.570160,155.841797 
	C97.620003,155.784454 98.981689,155.924896 98.983139,158.683411 
	C98.984596,161.472824 97.891701,162.016190 95.423431,161.941956 
	C90.431358,161.791794 85.425255,161.753433 80.437241,161.962631 
	C77.673279,162.078552 77.005836,160.984558 77.144981,158.479095 
	C77.329468,155.157272 77.228127,151.819595 77.257065,147.991287 
z"/>
<path fill="#0B0B0B" opacity="1.000000" stroke="none" 
	d="
M170.554657,130.291992 
	C171.298386,131.705261 174.598862,132.223465 171.756485,134.155365 
	C170.340118,135.118027 169.351151,137.811172 166.939423,135.535065 
	C164.887558,133.598587 162.373520,132.765015 159.624756,133.251694 
	C157.718445,133.589218 155.447601,133.999054 155.301270,136.568024 
	C155.175903,138.769012 156.906784,139.689346 158.707733,140.282608 
	C161.524200,141.210373 164.425934,141.904053 167.188782,142.964630 
	C172.518829,145.010742 174.756210,148.704803 173.928955,153.664948 
	C173.120026,158.515182 169.505630,161.779205 164.255066,162.006363 
	C159.645111,162.205826 154.856339,162.846725 150.897339,159.517258 
	C149.585968,158.414398 147.368088,157.185471 149.445816,155.239456 
	C150.744400,154.023193 152.314560,151.749466 154.785522,154.369476 
	C156.794281,156.499405 159.692261,157.247467 162.606735,156.711945 
	C164.490189,156.365875 166.656219,155.926376 166.988983,153.371765 
	C167.333603,150.726242 165.734482,149.330597 163.559265,148.555649 
	C160.763809,147.559738 157.811142,146.976166 155.071472,145.858780 
	C149.729614,143.680145 147.817749,140.295181 148.973984,134.882538 
	C149.967010,130.233765 153.230133,127.978973 157.879730,127.741829 
	C162.179733,127.522507 166.561462,127.016800 170.554657,130.291992 
z"/>
<path fill="#040404" opacity="1.000000" stroke="none" 
	d="
M119.941429,160.609283 
	C113.436234,162.961899 113.001816,162.675323 112.997032,156.503647 
	C112.992920,151.184418 112.595894,145.826492 113.106544,140.556793 
	C113.622505,135.232147 112.198067,132.897690 106.566696,133.893295 
	C105.296394,134.117889 103.019455,134.993179 102.882782,132.115051 
	C102.767365,129.684860 102.510742,127.707413 106.262192,127.898270 
	C113.059319,128.244064 119.888702,128.045975 126.702171,127.930389 
	C129.015762,127.891136 130.257416,128.127930 130.241241,131.043411 
	C130.224167,134.124039 128.657990,134.137909 126.502022,133.993607 
	C125.509911,133.927200 124.489662,134.130066 123.514587,133.988129 
	C120.494095,133.548431 119.964249,135.045654 120.011169,137.708221 
	C120.142944,145.185669 120.023109,152.667542 119.941429,160.609283 
z"/>
<path fill="#060606" opacity="1.000000" stroke="none" 
	d="
M66.918579,155.957275 
	C68.711647,155.997940 70.070648,155.877533 71.365089,156.112595 
	C73.584900,156.515701 72.662743,158.446075 72.895256,159.777695 
	C73.150398,161.238998 72.476357,161.971100 70.965019,161.891815 
	C70.466690,161.865677 69.966034,161.887314 69.466553,161.879471 
	C63.829281,161.790955 56.475304,163.820679 53.027153,161.028076 
	C49.422894,158.109039 52.132679,150.446945 51.912693,144.865356 
	C51.729195,140.209579 52.020176,135.534592 51.820644,130.880127 
	C51.711002,128.322479 52.722698,127.866325 54.995209,127.916870 
	C57.179089,127.965431 58.317322,128.290970 58.246078,130.894028 
	C58.072994,137.217712 58.512161,143.571075 58.085911,149.870621 
	C57.767948,154.569809 59.013134,156.768021 63.961094,155.946396 
	C64.769714,155.812119 65.622879,155.946136 66.918579,155.957275 
z"/>
<path fill="#171717" opacity="1.000000" stroke="none" 
	d="
M139.785080,140.719757 
	C138.411575,141.235168 137.428818,142.108231 135.778046,141.402573 
	C136.846893,138.362762 138.454620,135.197922 135.205383,132.218445 
	C134.285492,131.374939 134.853424,129.321121 136.193146,128.216293 
	C137.294724,127.307869 138.486862,127.069824 139.909363,127.481194 
	C141.681396,127.993660 142.168488,129.170181 142.157318,130.844803 
	C142.134949,134.196030 141.861145,137.476547 139.785080,140.719757 
z"/>
<path fill="#1E1E1E" opacity="1.000000" stroke="none" 
	d="
M61.844120,176.742538 
	C63.889492,179.021637 65.399879,181.745926 63.577232,183.880173 
	C61.894432,185.850677 58.019665,186.875961 56.060692,185.780792 
	C52.261856,183.657059 54.659409,179.322845 54.621120,175.978241 
	C54.602196,174.324799 53.023655,171.428894 56.527756,170.817703 
	C61.828522,169.893127 63.441174,171.434937 62.368233,176.870789 
	C60.995277,176.235809 60.691738,174.759842 59.422192,174.193085 
	C59.100193,174.049332 58.781746,174.110870 58.210346,174.501068 
	C58.761765,176.095123 60.661678,175.635422 61.844120,176.742538 
z"/>
<path fill="#1A1A1A" opacity="1.000000" stroke="none" 
	d="
M154.004501,179.532455 
	C150.914291,180.731506 147.875107,181.600815 148.404648,186.159134 
	C147.936050,186.029449 147.467468,185.899780 146.998871,185.770096 
	C146.998871,181.226883 146.587494,176.631699 147.152527,172.159866 
	C147.493683,169.459900 150.398407,171.365936 152.532471,171.033997 
	C153.072968,171.344650 153.168396,171.554642 153.091949,172.061493 
	C150.746429,174.039078 148.564041,175.719040 152.744568,178.070404 
	C153.462631,178.453568 153.783279,178.781174 154.004501,179.532455 
z"/>
<path fill="#2F2F2F" opacity="1.000000" stroke="none" 
	d="
M134.653046,184.241974 
	C138.296051,185.650436 139.957550,184.062637 140.380707,180.892456 
	C140.807907,177.691940 140.925964,174.450150 141.683975,171.231735 
	C143.450363,175.537094 143.250290,180.005142 141.469696,184.146622 
	C140.060684,187.423737 136.367416,183.985565 133.938934,185.451813 
	C133.821075,184.774551 134.043854,184.489929 134.653046,184.241974 
z"/>
<path fill="#242424" opacity="1.000000" stroke="none" 
	d="
M118.160294,179.390503 
	C117.623672,181.806778 117.177643,183.824921 116.479973,186.981659 
	C115.753441,183.404419 115.297707,180.993378 114.758438,178.601181 
	C114.583290,177.824203 114.199173,176.329697 114.656067,176.458969 
	C116.196449,176.894745 117.736610,175.816666 118.892418,176.379471 
	C119.738876,176.791626 118.545425,178.091049 118.160294,179.390503 
z"/>
<path fill="#171717" opacity="1.000000" stroke="none" 
	d="
M70.660843,179.937897 
	C70.840080,181.165802 70.791664,182.045898 71.095062,182.780731 
	C71.463776,183.673737 72.129044,184.444305 72.666016,185.267838 
	C72.227592,185.399246 71.631142,185.780273 71.377563,185.619720 
	C70.149048,184.841980 68.898148,184.056198 68.925362,182.267532 
	C68.980148,178.667130 68.941666,175.065308 68.941666,170.360184 
	C70.878502,173.942810 69.927544,176.873489 70.660843,179.937897 
z"/>
<path fill="#1E1E1E" opacity="1.000000" stroke="none" 
	d="
M134.661209,183.888794 
	C134.688202,184.443329 134.444702,184.688995 133.962189,185.043823 
	C129.938583,181.245712 132.739014,176.640213 132.657639,172.313141 
	C133.235336,176.068741 133.813034,179.824326 134.661209,183.888794 
z"/>
<path fill="#171717" opacity="1.000000" stroke="none" 
	d="
M90.651749,183.893051 
	C93.200951,180.150070 93.336288,176.626541 90.498848,172.380371 
	C95.346596,175.166595 95.426163,180.514130 91.352692,184.854233 
	C90.811203,184.676041 90.630997,184.466110 90.651749,183.893051 
z"/>
<path fill="#0D0D0D" opacity="1.000000" stroke="none" 
	d="
M90.445267,183.672058 
	C90.874794,183.756058 90.896889,183.982162 90.955185,184.547134 
	C84.348869,187.335312 83.764290,186.955353 83.891777,180.120193 
	C83.940491,177.508850 84.094376,174.899490 84.607651,172.110626 
	C85.164413,172.086029 85.313843,172.240021 85.457375,172.715851 
	C85.389198,175.156967 85.516449,177.302811 85.223984,179.389862 
	C84.668640,183.352829 86.175072,184.795303 90.445267,183.672058 
z"/>
<path fill="#0D0D0D" opacity="1.000000" stroke="none" 
	d="
M77.709671,181.182526 
	C77.782585,177.642120 77.782585,174.519058 77.782585,170.666138 
	C80.463776,175.727402 79.702629,182.578613 76.070221,185.373108 
	C76.751732,183.731583 77.194237,182.665710 77.709671,181.182526 
z"/>
<path fill="#242424" opacity="1.000000" stroke="none" 
	d="
M98.626717,181.290390 
	C98.142189,178.549957 98.119186,175.803818 98.009552,173.061157 
	C97.947479,171.508301 98.349030,170.531387 100.588394,170.861343 
	C101.375557,171.555283 101.216324,172.089310 100.491745,172.783432 
	C100.185585,175.387634 100.081703,177.756882 99.917336,180.568634 
	C99.588570,181.102814 99.320274,181.194473 98.626717,181.290390 
z"/>
<path fill="#1A1A1A" opacity="1.000000" stroke="none" 
	d="
M106.867043,179.314026 
	C107.390335,176.522186 105.874176,174.606247 105.765320,172.336395 
	C108.985947,174.444382 109.680656,177.433838 108.491508,181.025391 
	C108.262924,181.715805 107.801498,182.686447 106.811501,181.968307 
	C105.956871,181.348373 107.008545,180.510132 106.867043,179.314026 
z"/>
<path fill="#2F2F2F" opacity="1.000000" stroke="none" 
	d="
M154.358276,179.811569 
	C153.863831,179.559906 153.653671,179.321747 153.126465,179.062912 
	C152.591232,177.077454 153.532715,175.171570 152.807922,172.981033 
	C152.857346,172.404678 152.880997,172.150650 152.941101,171.515640 
	C158.137482,173.065338 156.582748,176.372330 154.358276,179.811569 
z"/>
<path fill="#E9E9E9" opacity="1.000000" stroke="none" 
	d="
M85.820190,173.061371 
	C85.369865,172.856888 85.288269,172.676102 85.110825,172.213684 
	C85.102638,170.068649 86.246407,169.826645 87.745163,170.176743 
	C88.488121,170.350266 88.851273,170.926208 88.800140,171.621170 
	C88.672295,173.358932 87.251762,172.932571 85.820190,173.061371 
z"/>
<path fill="#F2F2F2" opacity="1.000000" stroke="none" 
	d="
M100.617004,173.032654 
	C100.549408,172.514694 100.809334,172.010986 101.049835,171.212265 
	C102.488655,169.424149 103.106827,170.837173 103.247833,171.816055 
	C103.542496,173.861771 101.776253,172.714615 100.617004,173.032654 
z"/>
<path fill="#1A1A1A" opacity="1.000000" stroke="none" 
	d="
M106.152939,182.539230 
	C107.383430,186.062668 104.058929,184.536484 102.827881,185.671478 
	C102.701408,183.419907 105.038406,184.002289 106.152939,182.539230 
z"/>
<path fill="#1A1A1A" opacity="1.000000" stroke="none" 
	d="
M98.324951,181.718536 
	C98.475174,181.234665 98.748894,181.174698 99.439743,181.062958 
	C100.051926,182.215622 99.620613,182.640213 98.324951,181.718536 
z"/>
<path fill="#242424" opacity="1.000000" stroke="none" 
	d="
M98.337852,185.640472 
	C98.355453,185.352905 98.576218,185.293961 98.796982,185.235016 
	C98.711662,185.446381 98.626343,185.657761 98.337852,185.640472 
z"/>
<path fill="#FEFEFE" opacity="1.000000" stroke="none" 
	d="
M118.996216,77.806068 
	C125.093102,78.210922 130.773010,77.080757 136.302231,78.871986 
	C146.195908,82.077126 151.753357,88.892769 152.731598,99.138649 
	C153.217789,104.230865 154.682053,110.597862 152.334976,114.182198 
	C150.261887,117.348137 143.395615,115.095070 138.661087,115.124756 
	C118.536552,115.250923 98.410782,115.180458 78.285461,115.183159 
	C70.979095,115.184143 70.993027,115.185905 71.008240,108.042160 
	C71.023430,100.908630 70.623260,93.766182 75.343208,87.547035 
	C79.972191,81.447739 85.922577,78.102951 93.549904,77.964050 
	C101.863869,77.812660 110.181297,77.851280 118.996216,77.806068 
z"/>
<path fill="#FCFCFC" opacity="1.000000" stroke="none" 
	d="
M106.492355,15.130083 
	C125.015411,13.160523 135.570969,29.939476 131.155502,43.861954 
	C127.939651,54.001896 118.156670,60.792526 108.025032,59.769165 
	C97.107323,58.666409 88.466614,49.835724 87.520363,38.813675 
	C86.640350,28.563309 93.880371,18.509153 104.151482,15.714574 
	C104.791573,15.540418 105.426399,15.346915 106.492355,15.130083 
z"/>
<path fill="#FCFCFC" opacity="1.000000" stroke="none" 
	d="
M44.756077,29.382645 
	C53.079872,27.112692 59.296486,29.022800 63.577049,34.890968 
	C67.164276,39.808651 67.373322,47.433952 64.065292,52.699898 
	C60.628746,58.170425 53.893295,61.044834 47.225918,59.886230 
	C41.634327,58.914566 36.232861,53.423515 34.999004,47.456547 
	C33.702850,41.188271 36.436687,34.553875 41.802078,31.018442 
	C42.630859,30.472332 43.531338,30.035036 44.756077,29.382645 
z"/>
<path fill="#FBFBFB" opacity="1.000000" stroke="none" 
	d="
M171.348083,58.978222 
	C163.368881,57.503666 158.858383,52.878124 157.608414,45.405190 
	C156.597412,39.360954 158.862122,34.323376 163.675079,30.519613 
	C169.285095,26.085958 175.986664,25.872141 182.196945,29.848108 
	C187.699371,33.370888 190.473526,40.416870 188.875610,46.811081 
	C187.264267,53.259144 181.735229,58.209282 175.259003,58.937889 
	C174.107056,59.067490 172.931610,58.988106 171.348083,58.978222 
z"/>
<path fill="#F2F2F2" opacity="1.000000" stroke="none" 
	d="
M56.530983,183.521576 
	C56.543846,181.784668 55.069710,179.628860 57.558743,179.144348 
	C59.077747,178.848663 60.857857,178.544373 62.239525,179.866257 
	C63.056084,180.647461 63.141640,181.589706 62.649818,182.546036 
	C61.812107,184.174911 60.243912,184.024063 58.767815,184.009689 
	C58.115383,184.003342 57.463905,183.898117 56.530983,183.521576 
z"/>
<path fill="#E9E9E9" opacity="1.000000" stroke="none" 
	d="
M62.079445,176.940369 
	C61.403275,175.921310 60.681244,176.981323 59.969688,176.931961 
	C58.413994,176.824020 56.089478,178.249115 56.131470,174.911621 
	C56.155319,173.016220 56.863220,172.101624 58.793064,172.288773 
	C61.468098,172.548157 62.957417,173.546738 61.705177,176.727661 
	C62.050285,177.008301 62.041496,176.933060 62.079445,176.940369 
z"/>
<path fill="#ECECEC" opacity="1.000000" stroke="none" 
	d="
M152.425323,172.569397 
	C154.855515,174.442642 155.221405,176.365280 153.114532,178.716553 
	C150.882095,179.005737 148.324844,179.940857 148.840530,176.155899 
	C149.114502,174.144928 148.230911,171.366364 152.425323,172.569397 
z"/>
</svg>