<svg xmlns="http://www.w3.org/2000/svg" xmlns:xlink="http://www.w3.org/1999/xlink" contentstyletype="text/css" height="439px" preserveAspectRatio="none" style="width:1387px;height:439px;background:#FFFFFF;" version="1.1" viewBox="0 0 1387 439" width="1387px" zoomAndPan="magnify"><defs></defs><g><!--entity PS--><g id="elem_PS"><polygon fill="#F1F1F1" points="542.31,16,552.31,6,675.31,6,675.31,42.2969,665.31,52.2969,542.31,52.2969,542.31,16" style="stroke:#181818;stroke-width:0.5;"></polygon><line style="stroke:#181818;stroke-width:0.5;" x1="665.31" x2="675.31" y1="16" y2="6"></line><line style="stroke:#181818;stroke-width:0.5;" x1="542.31" x2="665.31" y1="16" y2="16"></line><line style="stroke:#181818;stroke-width:0.5;" x1="665.31" x2="665.31" y1="16" y2="52.2969"></line><text fill="#000000" font-family="sans-serif" font-size="14" lengthAdjust="spacing" textLength="93" x="557.31" y="38.9951">Power Supply</text></g><!--entity AU--><g id="elem_AU"><polygon fill="#F1F1F1" points="546.31,139.3,556.31,129.3,671.31,129.3,671.31,165.5969,661.31,175.5969,546.31,175.5969,546.31,139.3" style="stroke:#181818;stroke-width:0.5;"></polygon><line style="stroke:#181818;stroke-width:0.5;" x1="661.31" x2="671.31" y1="139.3" y2="129.3"></line><line style="stroke:#181818;stroke-width:0.5;" x1="546.31" x2="661.31" y1="139.3" y2="139.3"></line><line style="stroke:#181818;stroke-width:0.5;" x1="661.31" x2="661.31" y1="139.3" y2="175.5969"></line><text fill="#000000" font-family="sans-serif" font-size="14" lengthAdjust="spacing" textLength="85" x="561.31" y="162.2951">Arduino Uno</text></g><!--entity MC--><g id="elem_MC"><polygon fill="#F1F1F1" points="16.31,262.6,26.31,252.6,167.31,252.6,167.31,288.8969,157.31,298.8969,16.31,298.8969,16.31,262.6" style="stroke:#181818;stroke-width:0.5;"></polygon><line style="stroke:#181818;stroke-width:0.5;" x1="157.31" x2="167.31" y1="262.6" y2="252.6"></line><line style="stroke:#181818;stroke-width:0.5;" x1="16.31" x2="157.31" y1="262.6" y2="262.6"></line><line style="stroke:#181818;stroke-width:0.5;" x1="157.31" x2="157.31" y1="262.6" y2="298.8969"></line><text fill="#000000" font-family="sans-serif" font-size="14" lengthAdjust="spacing" textLength="111" x="31.31" y="285.5951">Motor Controller</text></g><!--entity SM--><g id="elem_SM"><polygon fill="#F1F1F1" points="26.31,385.89,36.31,375.89,157.31,375.89,157.31,412.1869,147.31,422.1869,26.31,422.1869,26.31,385.89" style="stroke:#181818;stroke-width:0.5;"></polygon><line style="stroke:#181818;stroke-width:0.5;" x1="147.31" x2="157.31" y1="385.89" y2="375.89"></line><line style="stroke:#181818;stroke-width:0.5;" x1="26.31" x2="147.31" y1="385.89" y2="385.89"></line><line style="stroke:#181818;stroke-width:0.5;" x1="147.31" x2="147.31" y1="385.89" y2="422.1869"></line><text fill="#000000" font-family="sans-serif" font-size="14" lengthAdjust="spacing" textLength="91" x="41.31" y="408.8851">Servo Motors</text></g><!--entity US--><g id="elem_US"><polygon fill="#F1F1F1" points="382.31,262.6,392.31,252.6,543.31,252.6,543.31,288.8969,533.31,298.8969,382.31,298.8969,382.31,262.6" style="stroke:#181818;stroke-width:0.5;"></polygon><line style="stroke:#181818;stroke-width:0.5;" x1="533.31" x2="543.31" y1="262.6" y2="252.6"></line><line style="stroke:#181818;stroke-width:0.5;" x1="382.31" x2="533.31" y1="262.6" y2="262.6"></line><line style="stroke:#181818;stroke-width:0.5;" x1="533.31" x2="533.31" y1="262.6" y2="298.8969"></line><text fill="#000000" font-family="sans-serif" font-size="14" lengthAdjust="spacing" textLength="121" x="397.31" y="285.5951">Ultrasonic Sensor</text></g><!--entity BT--><g id="elem_BT"><polygon fill="#F1F1F1" points="643.31,262.6,653.31,252.6,848.31,252.6,848.31,288.8969,838.31,298.8969,643.31,298.8969,643.31,262.6" style="stroke:#181818;stroke-width:0.5;"></polygon><line style="stroke:#181818;stroke-width:0.5;" x1="838.31" x2="848.31" y1="262.6" y2="252.6"></line><line style="stroke:#181818;stroke-width:0.5;" x1="643.31" x2="838.31" y1="262.6" y2="262.6"></line><line style="stroke:#181818;stroke-width:0.5;" x1="838.31" x2="838.31" y1="262.6" y2="298.8969"></line><text fill="#000000" font-family="sans-serif" font-size="14" lengthAdjust="spacing" textLength="165" x="658.31" y="285.5951">HC05 Bluetooth Module</text></g><!--entity SI--><g id="elem_SI"><polygon fill="#F1F1F1" points="1104.31,385.89,1114.31,375.89,1293.31,375.89,1293.31,412.1869,1283.31,422.1869,1104.31,422.1869,1104.31,385.89" style="stroke:#181818;stroke-width:0.5;"></polygon><line style="stroke:#181818;stroke-width:0.5;" x1="1283.31" x2="1293.31" y1="385.89" y2="375.89"></line><line style="stroke:#181818;stroke-width:0.5;" x1="1104.31" x2="1283.31" y1="385.89" y2="385.89"></line><line style="stroke:#181818;stroke-width:0.5;" x1="1283.31" x2="1283.31" y1="385.89" y2="422.1869"></line><text fill="#000000" font-family="sans-serif" font-size="14" lengthAdjust="spacing" textLength="149" x="1119.31" y="408.8851">Smartphone Interface</text></g><!--entity ODL--><g id="elem_ODL"><polygon fill="#F1F1F1" points="929.31,262.6,939.31,252.6,1142.31,252.6,1142.31,288.8969,1132.31,298.8969,929.31,298.8969,929.31,262.6" style="stroke:#181818;stroke-width:0.5;"></polygon><line style="stroke:#181818;stroke-width:0.5;" x1="1132.31" x2="1142.31" y1="262.6" y2="252.6"></line><line style="stroke:#181818;stroke-width:0.5;" x1="929.31" x2="1132.31" y1="262.6" y2="262.6"></line><line style="stroke:#181818;stroke-width:0.5;" x1="1132.31" x2="1132.31" y1="262.6" y2="298.8969"></line><text fill="#000000" font-family="sans-serif" font-size="14" lengthAdjust="spacing" textLength="173" x="944.31" y="285.5951">Obstacle Detection Logic</text></g><!--entity UC--><g id="elem_UC"><polygon fill="#F1F1F1" points="710.31,16,720.31,6,865.31,6,865.31,42.2969,855.31,52.2969,710.31,52.2969,710.31,16" style="stroke:#181818;stroke-width:0.5;"></polygon><line style="stroke:#181818;stroke-width:0.5;" x1="855.31" x2="865.31" y1="16" y2="6"></line><line style="stroke:#181818;stroke-width:0.5;" x1="710.31" x2="855.31" y1="16" y2="16"></line><line style="stroke:#181818;stroke-width:0.5;" x1="855.31" x2="855.31" y1="16" y2="52.2969"></line><text fill="#000000" font-family="sans-serif" font-size="14" lengthAdjust="spacing" textLength="115" x="725.31" y="38.9951">User Commands</text></g><!--link PS to AU--><g id="link_PS_AU"><path d="M608.81,52.68 C608.81,74.47 608.81,101.29 608.81,123.04 " fill="none" id="PS-to-AU" style="stroke:#181818;stroke-width:1.0;"></path><polygon fill="#181818" points="608.81,129.04,612.81,120.04,608.81,124.04,604.81,120.04,608.81,129.04" style="stroke:#181818;stroke-width:1.0;"></polygon><text fill="#000000" font-family="sans-serif" font-size="13" lengthAdjust="spacing" textLength="85" x="609.81" y="95.3669">Supply Power</text></g><!--link AU to MC--><g id="link_AU_MC"><path d="M546.02,154.33 C401.65,157.02 55.75,167.42 20.81,205.6 C6,221.78 18.446,235.8458 39.806,249.0458 " fill="none" id="AU-to-MC" style="stroke:#181818;stroke-width:1.0;"></path><polygon fill="#181818" points="44.91,252.2,39.3567,244.066,40.6566,249.5715,35.1512,250.8714,44.91,252.2" style="stroke:#181818;stroke-width:1.0;"></polygon><text fill="#000000" font-family="sans-serif" font-size="13" lengthAdjust="spacing" textLength="94" x="21.81" y="218.6669">Control Motors</text></g><!--link AU to MC--><g id="link_AU_MC"><path d="M545.9,157.11 C443.86,163.72 247.18,179.45 182.81,205.6 C156.71,216.2 135.9784,232.2508 118.7584,248.0708 " fill="none" id="AU-to-MC-1" style="stroke:#181818;stroke-width:1.0;"></path><polygon fill="#181818" points="114.34,252.13,123.6738,248.9868,118.022,248.7473,118.2615,243.0955,114.34,252.13" style="stroke:#181818;stroke-width:1.0;"></polygon><text fill="#000000" font-family="sans-serif" font-size="13" lengthAdjust="spacing" textLength="131" x="183.81" y="218.6669">Adjust Motor Control</text></g><!--link MC to SM--><g id="link_MC_SM"><path d="M91.81,299.28 C91.81,321.06 91.81,347.89 91.81,369.63 " fill="none" id="MC-to-SM" style="stroke:#181818;stroke-width:1.0;"></path><polygon fill="#181818" points="91.81,375.63,95.81,366.63,91.81,370.63,87.81,366.63,91.81,375.63" style="stroke:#181818;stroke-width:1.0;"></polygon><text fill="#000000" font-family="sans-serif" font-size="13" lengthAdjust="spacing" textLength="106" x="92.81" y="341.9569">Drive Wheelchair</text></g><!--link AU to US--><g id="link_AU_US"><path d="M545.86,156.16 C472.17,160.8 356.73,173.18 329.81,205.6 C308.2,231.62 337.0461,247.4544 376.3761,258.3044 " fill="none" id="AU-to-US" style="stroke:#181818;stroke-width:1.0;"></path><polygon fill="#181818" points="382.16,259.9,374.5478,253.6506,377.34,258.5703,372.4203,261.3625,382.16,259.9" style="stroke:#181818;stroke-width:1.0;"></polygon><text fill="#000000" font-family="sans-serif" font-size="13" lengthAdjust="spacing" textLength="144" x="330.81" y="218.6669">Receive Obstacle Data</text></g><!--link US to AU--><g id="link_US_AU"><path d="M478.26,252.13 C488.85,237.7 503.82,219.22 519.81,205.6 C532.9,194.45 543.4598,187.278 558.0898,178.988 " fill="none" id="US-to-AU" style="stroke:#181818;stroke-width:1.0;"></path><polygon fill="#181818" points="563.31,176.03,553.5077,176.9869,558.9598,178.495,557.4517,183.9471,563.31,176.03" style="stroke:#181818;stroke-width:1.0;"></polygon><text fill="#000000" font-family="sans-serif" font-size="13" lengthAdjust="spacing" textLength="139" x="520.81" y="218.6669">Send Obstacle Status</text></g><!--link AU to BT--><g id="link_AU_BT"><path d="M634.26,175.98 C658.86,197.77 691.4473,226.6131 716.0073,248.3531 " fill="none" id="AU-to-BT" style="stroke:#181818;stroke-width:1.0;"></path><polygon fill="#181818" points="720.5,252.33,716.4122,243.3696,716.7561,249.0159,711.1097,249.3599,720.5,252.33" style="stroke:#181818;stroke-width:1.0;"></polygon><text fill="#000000" font-family="sans-serif" font-size="13" lengthAdjust="spacing" textLength="203" x="685.81" y="218.6669">Communicate with Smartphone</text></g><!--link BT to SI--><g id="link_BT_SI"><path d="M830.22,299.35 C911.36,321.07 1027.5241,352.1783 1108.6541,373.8983 " fill="none" id="BT-to-SI" style="stroke:#181818;stroke-width:1.0;"></path><polygon fill="#181818" points="1114.45,375.45,1106.7906,369.2586,1109.6201,374.1569,1104.7217,376.9864,1114.45,375.45" style="stroke:#181818;stroke-width:1.0;"></polygon><text fill="#000000" font-family="sans-serif" font-size="13" lengthAdjust="spacing" textLength="161" x="999.81" y="341.9569">Send Control Commands</text></g><!--link SI to AU--><g id="link_SI_AU"><path d="M1217.05,375.63 C1246.87,336.19 1298.46,254 1253.81,205.6 C1214.84,163.35 832.0797,155.379 677.6097,153.859 " fill="none" id="SI-to-AU" style="stroke:#181818;stroke-width:1.0;"></path><polygon fill="#181818" points="671.61,153.8,680.5702,157.8884,676.6098,153.8492,680.6489,149.8888,671.61,153.8" style="stroke:#181818;stroke-width:1.0;"></polygon><text fill="#000000" font-family="sans-serif" font-size="13" lengthAdjust="spacing" textLength="108" x="1271.81" y="280.3069">User Commands</text></g><!--link AU to ODL--><g id="link_AU_ODL"><path d="M671.54,159.53 C730.96,166.51 822.11,180.38 897.81,205.6 C933.28,217.41 965.8459,233.929 992.8959,249.209 " fill="none" id="AU-to-ODL" style="stroke:#181818;stroke-width:1.0;"></path><polygon fill="#181818" points="998.12,252.16,992.2511,244.2507,993.7666,249.7008,988.3165,251.2162,998.12,252.16" style="stroke:#181818;stroke-width:1.0;"></polygon><text fill="#000000" font-family="sans-serif" font-size="13" lengthAdjust="spacing" textLength="145" x="937.81" y="218.6669">Process Obstacle Data</text></g><!--link ODL to AU--><g id="link_ODL_AU"><path d="M1072.5,252.16 C1090.35,238.41 1105.33,220.65 1091.81,205.6 C1064.2,174.84 801.7352,160.8502 677.4152,155.8702 " fill="none" id="ODL-to-AU" style="stroke:#181818;stroke-width:1.0;"></path><polygon fill="#181818" points="671.42,155.63,680.2527,159.987,676.416,155.8301,680.5729,151.9934,671.42,155.63" style="stroke:#181818;stroke-width:1.0;"></polygon><text fill="#000000" font-family="sans-serif" font-size="13" lengthAdjust="spacing" textLength="147" x="1097.81" y="218.6669">Decision for Movement</text></g><!--SRC=[RP8zRy8m48PtViM97QbBbmwL81cAH4HKOtLsdQDnvVYGVG7rtzSvlepQZ7wUtBr-aq0Tmhob4qPGu-7WV-PW4hHg1la9GfUn6rqWq844BdK16sAAK57WIDvZ5AEf2aDXF1A8buIgfg3QSpI9WhEWC2Gw3z3b_hVgwHbMVaGcuZvFwaQFegrsvPx1H3xq513MWJ7kZJrRQbrOsy_4ndg46XajEmgmeIzdnTpMcp9Qmkbcms12TqwkgvdmLi5YyPgBW9TBQo0L2iod4sog32-zN6ulE9zFM3KPrz4T4JvwH6zxunxUroeBxsXnKkwf3HknT1a1GtTN51iUKpbgjPCemp3ccWqZd5pkyTwNk5cINElhm6lsQmDYPNnR-z1FkI_Nc74RoM9A_sIV-6rAZTQbwJFiyt_Kq1473Fodo6NtFIQ6Xx_j5m00]--></g></svg>